<?xml version="1.0" encoding="utf-8"?>
<!-- Generator: Adobe Illustrator 27.5.0, SVG Export Plug-In . SVG Version: 6.00 Build 0)  -->
<svg version="1.1" id="Layer_1" xmlns="http://www.w3.org/2000/svg" xmlns:xlink="http://www.w3.org/1999/xlink" x="0px" y="0px"
	 viewBox="0 0 312.486 256.43" style="enable-background:new 0 0 312.486 256.43;" xml:space="preserve">
<g>
	<g>
		<g>
			<g>
				<g>
					<g>
						<g>
							<path style="fill:#A05627;" d="M249.864,120.466c-6.07-3.016-13.376-1.095-18.4,2.969c-2.207,1.785-3.882,4.059-5.234,6.554
								c-1.631,2.021-3.154,4.112-4.406,6.426c-1.961,3.628-2.751,7.953-3.648,11.941c-1.806,8.021-2.727,17.615,0.245,25.489
								c2.845,7.536,10.025,7.112,15.891,3.491c7.122-4.394,12.679-11.732,17.148-18.661
								C258.475,147.795,264.902,127.937,249.864,120.466z"/>
							<path style="fill:#F6C3A4;" d="M250.775,157.396c-3.696,6.193-8.533,12.077-14.11,16.652
								c-3.088,2.533-6.97,4.825-11.101,4.146c-3.773-0.621-5.645-5.017-6.49-8.251c-1.743-6.678-0.9-14.262,0.367-20.937
								c0.735-3.87,1.709-7.72,3.164-11.382c0.47-1.183,1.04-2.306,1.667-3.397c-0.968,2.45-1.75,4.968-2.499,7.355
								c-0.113,0.359,0.326,0.188,0.409-0.036c2.209-5.929,4.403-12.095,9.053-16.595c4.87-4.71,12.416-5.585,18.349-2.527
								C263.018,129.348,256.578,147.672,250.775,157.396z"/>
							<path style="fill:#F6C3A4;" d="M238.433,165.475c-0.141-0.119-0.108-0.337,0-0.461c6.919-7.835,15.507-18.727,12.498-29.973
								c-1.052-3.93-4.257-7.066-8.471-7.201c-4.172-0.135-7.643,2.258-9.596,5.855c-0.153,0.28-0.623,0.159-0.608-0.164
								c0.171-3.657,0.794-7.423,2.084-10.858c0.002-0.009,0.006-0.019,0.01-0.028c-1.118,0.625-2.167,1.393-3.114,2.308
								c-4.649,4.5-6.844,10.666-9.053,16.595c-0.083,0.224-0.522,0.395-0.409,0.036c0.749-2.388,1.531-4.905,2.499-7.355
								c-0.627,1.092-1.197,2.215-1.667,3.397c-1.455,3.662-2.429,7.512-3.164,11.382c-1.268,6.675-2.11,14.259-0.367,20.937
								c0.845,3.234,2.717,7.63,6.49,8.251c4.131,0.68,8.013-1.612,11.101-4.146c2.681-2.199,5.186-4.708,7.481-7.401
								C242.199,167.198,240.225,166.998,238.433,165.475z"/>
							<path style="fill:#A05627;" d="M243.896,129.565c-3.194-0.641-6.939,2.893-8.489,5.286
								c-2.958,4.562-4.651,9.604-5.854,14.874c-1.278,5.605-2.931,12.484-1.917,18.227c0.064,0.364,0.549-0.057,0.559-0.272
								c0.222-4.327,0.639-8.61,1.375-12.837c0.036,1.932,0.205,3.914,0.76,5.559c0.792,2.349,2.594,4.823,5.385,4.203
								c1.866-0.414,2.866-2.858,3.616-4.338c0.046-0.089,0.068-0.163,0.078-0.228c-0.633,0.961-1.485,1.779-2.501,2.273
								c-1.016,0.855-2.163,1.066-3.398,0.019c-1.461-0.945-2.241-3.146-2.495-4.725c-0.527-3.271-0.381-6.885,0.136-10.154
								c0.395-2.495,1.09-4.984,2.492-7.065c1.434-3.36,3.4-6.53,6.541-8.495c4.895-3.062,8.021,3.359,8.392,7.253
								c0.053,0.563,0.822-0.151,0.824-0.504C249.423,134.979,247.962,130.38,243.896,129.565z"/>
						</g>
						<g>
							<path style="fill:#A05627;" d="M56.093,158.675c4.47,6.929,10.026,14.268,17.148,18.661
								c5.866,3.621,13.046,4.045,15.892-3.491c2.971-7.874,2.048-17.468,0.244-25.489c-0.897-3.988-1.688-8.313-3.648-11.941
								c-1.25-2.313-2.773-4.404-4.406-6.426c-1.354-2.495-3.026-4.769-5.233-6.554c-5.026-4.063-12.329-5.984-18.399-2.969
								C42.649,127.937,49.078,147.795,56.093,158.675z"/>
							<path style="fill:#F6C3A4;" d="M57.969,122.425c5.932-3.058,13.477-2.183,18.349,2.527c4.649,4.5,6.843,10.666,9.052,16.595
								c0.082,0.224,0.521,0.395,0.409,0.036c-0.75-2.388-1.53-4.905-2.499-7.355c0.628,1.092,1.198,2.215,1.666,3.397
								c1.455,3.662,2.429,7.512,3.164,11.382c1.267,6.675,2.11,14.259,0.367,20.937c-0.845,3.234-2.715,7.63-6.489,8.251
								c-4.13,0.68-8.012-1.612-11.1-4.146c-5.577-4.575-10.416-10.459-14.11-16.652C50.973,147.672,44.533,129.348,57.969,122.425z
								"/>
							<path style="fill:#F6C3A4;" d="M69.118,165.475c0.142-0.119,0.11-0.337,0-0.461c-6.919-7.835-15.507-18.727-12.498-29.973
								c1.052-3.93,4.259-7.066,8.472-7.201c4.17-0.135,7.642,2.258,9.597,5.855c0.153,0.28,0.623,0.159,0.607-0.164
								c-0.17-3.657-0.795-7.423-2.084-10.858c-0.004-0.009-0.007-0.019-0.011-0.028c1.117,0.625,2.167,1.393,3.116,2.308
								c4.649,4.5,6.843,10.666,9.052,16.595c0.082,0.224,0.521,0.395,0.409,0.036c-0.75-2.388-1.53-4.905-2.499-7.355
								c0.628,1.092,1.198,2.215,1.666,3.397c1.455,3.662,2.429,7.512,3.164,11.382c1.267,6.675,2.11,14.259,0.367,20.937
								c-0.845,3.234-2.715,7.63-6.489,8.251c-4.13,0.68-8.012-1.612-11.1-4.146c-2.683-2.199-5.188-4.708-7.481-7.401
								C65.354,167.198,67.326,166.998,69.118,165.475z"/>
							<path style="fill:#A05627;" d="M63.654,129.565c3.196-0.641,6.937,2.893,8.489,5.286c2.958,4.562,4.653,9.604,5.854,14.874
								c1.278,5.605,2.931,12.484,1.919,18.227c-0.064,0.364-0.55-0.057-0.561-0.272c-0.222-4.327-0.639-8.61-1.374-12.837
								c-0.038,1.932-0.206,3.914-0.762,5.559c-0.792,2.349-2.593,4.823-5.382,4.203c-1.866-0.414-2.866-2.858-3.619-4.338
								c-0.045-0.089-0.065-0.163-0.075-0.228c0.633,0.961,1.483,1.779,2.501,2.273c1.014,0.855,2.163,1.066,3.398,0.019
								c1.459-0.945,2.241-3.146,2.493-4.725c0.528-3.271,0.381-6.885-0.137-10.154c-0.392-2.495-1.089-4.984-2.489-7.065
								c-1.434-3.36-3.4-6.53-6.544-8.495c-4.896-3.062-8.02,3.359-8.391,7.253c-0.053,0.563-0.82-0.151-0.822-0.504
								C58.13,134.979,59.589,130.38,63.654,129.565z"/>
						</g>
					</g>
					<g>
						<path style="fill:#999C9E;" d="M160.128,252.583h-0.004c-0.743,0-1.485-0.026-2.213-0.077h-5.522
							c-0.681,0.051-1.425,0.077-2.166,0.077c-12.587,0-22.829-7.459-23.259-7.777c-29.861-21.372-42.137-46.106-47.172-63.091
							c-5.295-17.857-3.92-31.158-3.813-32.088c-0.211-10.528-2.05-20.344-3.827-29.835c-4.166-22.238-8.102-43.245,8.02-71.341
							c11.974-20.872,31.032-31.887,44.912-37.453c15.024-6.025,27.402-7.141,27.525-7.15l5.075-0.002
							c0.178,0.012,12.557,1.128,27.581,7.152c13.879,5.566,32.938,16.581,44.913,37.453c16.119,28.096,12.184,49.103,8.018,71.341
							c-1.776,9.491-3.616,19.307-3.827,29.835c0.106,0.93,1.482,14.231-3.813,32.088c-5.035,16.984-17.311,41.719-47.18,63.097
							C182.953,245.124,172.713,252.583,160.128,252.583z"/>
						<path style="fill:#D5D7D8;" d="M157.958,251.202c0.743,0.053,1.455,0.077,2.166,0.077h0.004c12.161,0,22.378-7.445,22.48-7.52
							c29.551-21.149,41.694-45.579,46.679-62.35c5.403-18.18,3.801-31.536,3.784-31.667c-0.004-0.032-0.008-0.064-0.006-0.095
							c0.208-10.654,2.061-20.538,3.85-30.095c4.122-21.997,8.014-42.774-7.868-70.451c-22.571-39.34-70.934-43.914-71.42-43.955
							l-4.964,0.002c-0.064,0.009-12.284,1.113-27.134,7.074C111.855,17.713,93.08,28.568,81.3,49.102
							c-15.882,27.677-11.988,48.454-7.868,70.451c1.791,9.557,3.642,19.44,3.85,30.095c0.002,0.03,0,0.063-0.003,0.095
							c-0.017,0.131-1.622,13.487,3.781,31.667c4.986,16.771,17.128,41.2,46.672,62.344c0.109,0.081,10.344,7.526,22.491,7.526
							c0.711,0,1.423-0.024,2.118-0.075L157.958,251.202z"/>
						<path style="fill:#FFFFFF;" d="M157.799,241.732c0.703,0.049,1.376,0.072,2.047,0.072h0.002
							c11.473,0,21.112-7.025,21.209-7.098c27.878-19.951,39.336-43,44.04-58.821c5.097-17.151,3.585-29.752,3.567-29.877
							c-0.004-0.03-0.004-0.061-0.004-0.089c0.197-10.052,1.942-19.375,3.632-28.394c3.888-20.752,7.56-40.354-7.423-66.465
							c-21.296-37.114-66.922-41.43-67.381-41.471l-4.683,0.002c-0.063,0.01-11.589,1.051-25.6,6.676
							c-12.901,5.179-30.613,15.419-41.729,34.793c-14.982,26.111-11.311,45.713-7.421,66.465
							c1.688,9.019,3.433,18.342,3.632,28.394c0,0.028,0,0.059-0.006,0.089c-0.017,0.125-1.529,12.726,3.569,29.877
							c4.702,15.821,16.16,38.87,44.031,58.817c0.104,0.076,9.76,7.102,21.221,7.102c0.668,0,1.341-0.023,1.998-0.07
							L157.799,241.732z"/>
					</g>
				</g>
				<g>
					<g>
						<path style="fill:#B6B8BA;" d="M232.326,130.817c-2.505-5.005-9.221-5.71-14.173-6.17c-6.413-0.595-13.057,0.899-19.074,3.02
							c-1.046,0.368-2.092,0.729-3.141,1.092c-5.741,0.926-11.266,3.957-16.678,5.909c-6.316,2.274-13.181,4.005-19.777,1.746
							c-0.189-0.063-0.43,0.059-0.633,0.248c-0.581-0.46-1.792,0.961-1.391,1.543c3.293,4.787,8.328,4.308,13.347,2.57
							c6.563-2.273,13.029-4.954,19.535-7.389c6.851-2.567,13.373-5.299,20.726-6.113c6.417-0.713,15.278,0.119,20.41,4.433
							C231.866,132.034,232.512,131.191,232.326,130.817z"/>
						<g>
							<g>
								<path style="fill:#848789;" d="M221.052,131.871c-1.8-0.375-3.453,0.093-5.24,0.405c-7.427,0.646-14.525,3.221-21.344,6.718
									c-3.844,1.971-7.292,4.349-10.617,6.864c-3.235,2.448-10.586,9.67-15.476,7.889c-0.131-0.059-0.264-0.111-0.393-0.178
									c-0.176-0.091-0.345-0.186-0.514-0.278c-0.075-0.052-0.155-0.097-0.229-0.153c-0.033-0.023-0.067-0.032-0.102-0.038
									c-1.584-0.936-2.775-2.065-3.037-3.805c-0.057-0.377-0.566,0.121-0.559,0.341c0.075,2.656,3.478,6.154,7.097,6.086
									c-0.752,0.269-1.506,0.513-2.355,0.669c-1.396,0.254-2.637,0.081-3.9-0.203c-0.256-0.057-0.544,0.426-0.3,0.504
									c2.7,0.873,5.653,0.679,8.368-0.966c0.122-0.074,0.258-0.304,0.286-0.478c0.091-0.04,0.183-0.08,0.271-0.127
									c2.693,4.668,6.581,7.214,13.303,7.875c7.086,0.697,14.111-0.837,20.358-4.495c0.202-0.119,0.383-0.713,0.018-0.544
									c-6.178,2.857-11.956,3.906-18.589,3.734c-2.145-0.058-4.065-0.366-5.786-0.898c1.139,0.226,2.374,0.371,3.74,0.425
									c5.952,0.232,13.271-1.376,18.734-4.091c5.044-2.504,9.089-5.831,11.355-10.146c2.372-4.519,1.481-9.48,0.645-13.798
									c-0.013-0.063-0.034-0.103-0.061-0.137c1.266-0.139,2.547-0.246,3.841-0.343c1.472,0.278,3.052,0.881,4.138,1.564
									c0.355,0.224,0.686-0.426,0.621-0.637C224.964,132.496,222.338,132.141,221.052,131.871z"/>
								<path style="fill:#545456;" d="M215.948,133.695c0.081,4.246,1.391,8.08-0.349,12.474
									c-2.023,5.104-8.067,8.734-13.943,10.941c-4.756,1.788-10.123,2.618-15.049,2.624c-5.646,0.007-9.44-2.185-12.561-5.29
									c0.127-0.103,0.254-0.21,0.379-0.327c0.074-0.068,0.191-0.334,0.165-0.471c0.399-0.198,0.792-0.407,1.165-0.629
									c4.674-2.794,8.527-6.373,12.966-9.404c4.444-3.033,9.581-5.503,14.737-7.521c4.323-1.688,8.545-2.51,12.885-3.002
									C216.14,133.245,215.944,133.527,215.948,133.695z"/>
							</g>
							<path style="fill:#848789;" d="M204.564,169.635c-5.136,2.04-12.559,2.368-17.725,0.119c-2.7-1.176-5.434-2.691-7.656-4.624
								c-2.302-2.007-4.937-3.647-6.805-6.101c-0.186-0.244-0.616,0.206-0.485,0.428c3.081,5.146,8.902,9.075,14.213,11.593
								c2.766,1.315,6.021,1.156,9.031,1.302c3.503,0.169,6.119-0.298,9.3-1.779C204.807,170.402,205.212,169.377,204.564,169.635z"
								/>
							<g>
								<defs>
									<path id="SVGID_1_" d="M215.948,133.695c0.081,4.246,1.391,8.08-0.349,12.474c-2.023,5.104-8.067,8.734-13.943,10.941
										c-4.756,1.788-10.123,2.618-15.049,2.624c-5.646,0.007-9.44-2.185-12.561-5.29c0.127-0.103,0.254-0.21,0.379-0.327
										c0.074-0.068,0.191-0.334,0.165-0.471c0.399-0.198,0.792-0.407,1.165-0.629c4.674-2.794,8.527-6.373,12.966-9.404
										c4.444-3.033,9.581-5.503,14.737-7.521c4.323-1.688,8.545-2.51,12.885-3.002
										C216.14,133.245,215.944,133.527,215.948,133.695z"/>
								</defs>
								<clipPath id="SVGID_00000057859770381270378350000006270100778610272646_">
									<use xlink:href="#SVGID_1_"  style="overflow:visible;"/>
								</clipPath>
								<g style="clip-path:url(#SVGID_00000057859770381270378350000006270100778610272646_);">
									<path style="fill:#591E00;" d="M205.333,146.935c0,5.577-4.522,10.098-10.098,10.098c-5.579,0-10.1-4.52-10.1-10.098
										c0-5.577,4.52-10.1,10.1-10.1C200.811,136.835,205.333,141.357,205.333,146.935z"/>
									<circle style="fill:#BA6F2D;" cx="195.235" cy="146.935" r="9.245"/>
									<path style="fill:#591E00;" d="M199.349,146.935c0,2.271-1.844,4.113-4.113,4.113c-2.273,0-4.113-1.842-4.113-4.113
										s1.84-4.115,4.113-4.115C197.505,142.819,199.349,144.663,199.349,146.935z"/>
									<path style="fill:#FFFFFF;" d="M193.208,147.446c0,1.153-0.935,2.086-2.088,2.086c-1.151,0-2.086-0.933-2.086-2.086
										c0-1.152,0.935-2.086,2.086-2.086C192.273,145.36,193.208,146.294,193.208,147.446z"/>
								</g>
							</g>
							<path style="fill:#A7A9AC;" d="M189.499,149.67c3.161-1.212,6.359-2.407,9.639-3.266c3.473-0.907,7.046-1.588,10.642-1.695
								c2.075-0.064,4.206-0.189,6.294-0.006c0.981-3.797-0.053-7.241-0.125-11.008c-0.004-0.168,0.191-0.45,0.395-0.605
								c-4.34,0.492-8.562,1.314-12.885,3.002c-5.156,2.019-10.293,4.488-14.737,7.521c-4.438,3.031-8.292,6.61-12.966,9.404
								c-0.373,0.222-0.766,0.431-1.165,0.629c0.026,0.137-0.091,0.402-0.165,0.471c-0.125,0.117-0.252,0.225-0.379,0.327
								c0.707,0.703,1.451,1.356,2.241,1.951C178.673,153.527,188.123,150.197,189.499,149.67z"/>
						</g>
					</g>
					<g>
						<path style="fill:#B6B8BA;" d="M80.228,130.817c2.507-5.005,9.223-5.71,14.175-6.17c6.411-0.595,13.056,0.899,19.074,3.02
							c1.044,0.368,2.092,0.729,3.14,1.092c5.742,0.926,11.265,3.957,16.678,5.909c6.316,2.274,13.182,4.005,19.778,1.746
							c0.188-0.063,0.431,0.059,0.633,0.248c0.58-0.46,1.79,0.961,1.389,1.543c-3.291,4.787-8.328,4.308-13.347,2.57
							c-6.563-2.273-13.027-4.954-19.533-7.389c-6.853-2.567-13.375-5.299-20.726-6.113c-6.419-0.713-15.277,0.119-20.41,4.433
							C80.688,132.034,80.042,131.191,80.228,130.817z"/>
						<g>
							<g>
								<path style="fill:#848789;" d="M87.229,133.631c-0.066,0.211,0.264,0.86,0.622,0.637c1.085-0.684,2.663-1.286,4.138-1.564
									c1.292,0.097,2.572,0.204,3.838,0.343c-0.024,0.034-0.047,0.074-0.061,0.137c-0.836,4.317-1.724,9.279,0.648,13.798
									c2.266,4.315,6.309,7.643,11.352,10.146c5.466,2.715,12.782,4.323,18.737,4.091c1.363-0.054,2.601-0.199,3.739-0.425
									c-1.722,0.532-3.643,0.841-5.788,0.898c-6.631,0.172-12.409-0.878-18.587-3.734c-0.363-0.169-0.184,0.425,0.018,0.544
									c6.248,3.658,13.272,5.192,20.356,4.495c6.724-0.661,10.609-3.207,13.304-7.875c0.089,0.047,0.182,0.087,0.273,0.127
									c0.028,0.174,0.163,0.403,0.284,0.478c2.715,1.645,5.67,1.839,8.37,0.966c0.242-0.078-0.044-0.561-0.302-0.504
									c-1.264,0.284-2.504,0.457-3.9,0.203c-0.847-0.156-1.602-0.4-2.353-0.669c3.617,0.068,7.019-3.43,7.098-6.086
									c0.005-0.22-0.504-0.718-0.562-0.341c-0.261,1.739-1.453,2.868-3.034,3.805c-0.036,0.006-0.07,0.015-0.103,0.038
									c-0.076,0.057-0.155,0.102-0.231,0.153c-0.169,0.093-0.337,0.188-0.512,0.278c-0.131,0.066-0.263,0.119-0.394,0.178
									c-4.89,1.781-12.239-5.44-15.477-7.889c-3.325-2.516-6.771-4.893-10.615-6.864c-6.82-3.497-13.917-6.071-21.346-6.718
									c-1.784-0.313-3.44-0.78-5.238-0.405C90.218,132.141,87.592,132.496,87.229,133.631z"/>
								<path style="fill:#545456;" d="M96.21,133.09c4.342,0.492,8.562,1.314,12.885,3.002c5.157,2.019,10.293,4.488,14.737,7.521
									c4.441,3.031,8.293,6.61,12.967,9.404c0.373,0.222,0.765,0.431,1.165,0.629c-0.027,0.137,0.091,0.402,0.164,0.471
									c0.127,0.117,0.254,0.225,0.381,0.327c-3.12,3.105-6.917,5.297-12.561,5.29c-4.928-0.006-10.295-0.836-15.05-2.624
									c-5.877-2.207-11.921-5.837-13.942-10.941c-1.741-4.394-0.432-8.228-0.351-12.474
									C96.609,133.527,96.415,133.245,96.21,133.09z"/>
							</g>
							<path style="fill:#848789;" d="M107.99,169.635c5.136,2.04,12.558,2.368,17.725,0.119c2.701-1.176,5.433-2.691,7.655-4.624
								c2.302-2.007,4.938-3.647,6.806-6.101c0.188-0.244,0.617,0.206,0.484,0.428c-3.08,5.146-8.9,9.075-14.211,11.593
								c-2.768,1.315-6.022,1.156-9.033,1.302c-3.503,0.169-6.117-0.298-9.3-1.779C107.748,170.402,107.342,169.377,107.99,169.635z
								"/>
							<g>
								<defs>
									<path id="SVGID_00000130637276609472707800000017369318366618383509_" d="M96.21,133.09
										c4.342,0.492,8.562,1.314,12.885,3.002c5.157,2.019,10.293,4.488,14.737,7.521c4.441,3.031,8.293,6.61,12.967,9.404
										c0.373,0.222,0.765,0.431,1.165,0.629c-0.027,0.137,0.091,0.402,0.164,0.471c0.127,0.117,0.254,0.225,0.381,0.327
										c-3.12,3.105-6.917,5.297-12.561,5.29c-4.928-0.006-10.295-0.836-15.05-2.624c-5.877-2.207-11.921-5.837-13.942-10.941
										c-1.741-4.394-0.432-8.228-0.351-12.474C96.609,133.527,96.415,133.245,96.21,133.09z"/>
								</defs>
								<clipPath id="SVGID_00000020396194578499616970000004122537622867532983_">
									<use xlink:href="#SVGID_00000130637276609472707800000017369318366618383509_"  style="overflow:visible;"/>
								</clipPath>
								<g style="clip-path:url(#SVGID_00000020396194578499616970000004122537622867532983_);">
									<path style="fill:#591E00;" d="M107.221,146.935c0,5.577,4.522,10.098,10.1,10.098c5.578,0,10.101-4.52,10.101-10.098
										c0-5.577-4.522-10.1-10.101-10.1C111.743,136.835,107.221,141.357,107.221,146.935z"/>
									<path style="fill:#BA6F2D;" d="M108.075,146.935c0,5.105,4.14,9.245,9.245,9.245c5.107,0,9.246-4.14,9.246-9.245
										s-4.14-9.245-9.246-9.245C112.215,137.689,108.075,141.829,108.075,146.935z"/>
									<path style="fill:#591E00;" d="M113.206,146.935c0,2.271,1.843,4.113,4.114,4.113s4.113-1.842,4.113-4.113
										s-1.842-4.115-4.113-4.115S113.206,144.663,113.206,146.935z"/>
									<ellipse style="fill:#FFFFFF;" cx="121.434" cy="147.446" rx="2.088" ry="2.086"/>
								</g>
							</g>
							<path style="fill:#A7A9AC;" d="M123.058,149.67c-3.164-1.212-6.36-2.407-9.642-3.266c-3.473-0.907-7.046-1.588-10.642-1.695
								c-2.074-0.064-4.206-0.189-6.294-0.006c-0.981-3.797,0.054-7.241,0.125-11.008c0.004-0.168-0.19-0.45-0.396-0.605
								c4.342,0.492,8.562,1.314,12.885,3.002c5.157,2.019,10.293,4.488,14.737,7.521c4.441,3.031,8.293,6.61,12.967,9.404
								c0.373,0.222,0.765,0.431,1.165,0.629c-0.027,0.137,0.091,0.402,0.164,0.471c0.127,0.117,0.254,0.225,0.381,0.327
								c-0.706,0.703-1.451,1.356-2.241,1.951C133.881,153.527,124.431,150.197,123.058,149.67z"/>
						</g>
					</g>
					<g>
						<path style="fill:#86CFC7;" d="M201.976,121.063c-2.847-3.558-5.74-7.077-8.48-10.648c-1.842-2.4-3.499-4.881-5-7.463
							c-3.042-3.884-5.956-7.849-8.518-12.034c0.278,11.897,1.586,23.851,5.212,35.079
							C190.662,123.973,196.314,122.505,201.976,121.063z"/>
						<path style="fill:#86CFC7;" d="M206.593,162.773c0.343,0.52,0.684,1.04,1.02,1.565c5.879,9.188,8.064,20.563,9.146,31.266
							c0.059,0.595,0.78-0.034,0.906-0.306c0.855-2.568,1.263-5.348,1.563-7.901c0.485-4.153,0.528-8.314,0.766-12.481
							c0.341-6.023-0.108-11.988-1.215-17.82C214.933,159.509,210.91,161.76,206.593,162.773z"/>
					</g>
					<g>
						<path style="fill:#86CFC7;" d="M111.872,121.063c2.85-3.558,5.742-7.077,8.481-10.648c1.842-2.4,3.5-4.881,4.998-7.463
							c3.043-3.884,5.956-7.849,8.518-12.034c-0.278,11.897-1.585,23.851-5.212,35.079
							C123.187,123.973,117.537,122.505,111.872,121.063z"/>
						<path style="fill:#86CFC7;" d="M107.255,162.773c-0.343,0.52-0.682,1.04-1.02,1.565c-5.876,9.188-8.063,20.563-9.145,31.266
							c-0.061,0.595-0.782-0.034-0.905-0.306c-0.856-2.568-1.268-5.348-1.565-7.901c-0.482-4.153-0.528-8.314-0.765-12.481
							c-0.342-6.023,0.107-11.988,1.216-17.82C98.915,159.509,102.938,161.76,107.255,162.773z"/>
					</g>
				</g>
				<g>
					<g>
						<g>
							<path style="fill:#AFB1B4;" d="M174.448,187.775c-1.407-4.009-4.31-7.257-7.597-9.879c-3.454-2.756-7.304-5.384-11.772-5.998
								c-0.441-0.061-0.876-0.105-1.309-0.142c-2.131,0.28-4.166,0.93-6.157,1.717c-3.747,1.996-6.981,5.437-9.266,9.06
								c-2.842,3.133-4.841,6.854-2.069,10.979c1.953,2.904,5.774,4.565,8.763,6.153c3.177,1.691,6.206,2.516,9.811,2.203
								c6.147-0.53,14.131-4.234,17.954-9.16C174.005,191.166,174.479,189.482,174.448,187.775z"/>
							<path style="fill:#FF1733;" d="M174.448,182.561c-1.407-4.009-4.31-7.256-7.597-9.878c-3.454-2.755-7.304-5.385-11.772-5.998
								c-0.441-0.06-0.876-0.104-1.309-0.141c-2.131,0.278-4.166,0.929-6.157,1.715c-3.747,1.996-6.981,5.439-9.266,9.062
								c-2.842,3.133-4.841,6.852-2.069,10.977c1.953,2.904,5.774,4.565,8.763,6.153c3.177,1.692,6.206,2.516,9.811,2.205
								c6.147-0.532,14.131-4.236,17.954-9.162C174.005,185.952,174.479,184.269,174.448,182.561z"/>
							<path style="fill:#AF1827;" d="M166.852,172.684c-3.454-2.755-7.304-5.385-11.772-5.998c-0.441-0.06-0.876-0.104-1.309-0.141
								c-2.131,0.278-4.166,0.929-6.157,1.715c-3.747,1.996-6.981,5.439-9.266,9.062c-2.842,3.133-4.841,6.852-2.069,10.977
								c1.953,2.904,5.774,4.565,8.763,6.153c3.177,1.692,6.206,2.516,9.811,2.205c6.147-0.532,14.131-4.236,17.954-9.162
								c1.199-1.542,1.673-3.226,1.643-4.933C173.041,178.553,170.139,175.306,166.852,172.684z M154.037,190.333
								c-4.814,1.941-12.743-0.097-14.547-5.51c-0.877-2.634,0.586-5.238,2.243-7.224c1.985-2.374,4.386-4.327,6.838-6.197
								c0.186-0.142,0.361-0.028,0.432,0.143c0.766-0.425,1.592-0.69,2.483-0.701c3.077-0.038,5.43,2.173,6.633,4.839
								C160.227,180.351,159.366,188.185,154.037,190.333z"/>
							<path style="fill:#B6B8BA;" d="M151.496,196.56c4.729,0.533,9.172-0.259,13.483-2.273c2.66-1.24,5.18-2.851,7.364-4.817
								c1.356-1.222,2.692-2.745,2.558-4.712c-0.04-0.587-0.145-1.153-0.282-1.713c-0.893-2.105-2.475-4.312-4.059-5.773
								c-0.97-0.895-1.216,0.427-0.557,1.112c0.981,1.021,1.677,2.489,2.281,3.775c1.195,2.547,0.261,3.716-1.253,5.309
								c-1.288,1.356-2.697,2.69-4.293,3.706c-3.037,0.707-6.026,1.737-9.135,2.233c-4.282,0.685-8.366,0.042-12.514-1.106
								c-0.337-0.161-0.675-0.325-1.016-0.498c-2.056-1.046-3.804-2.679-5.377-4.335c-1.514-1.593-2.447-2.762-1.254-5.309
								c0.604-1.286,1.302-2.754,2.283-3.775c0.659-0.686,0.413-2.008-0.56-1.112c-1.822,1.685-3.648,4.357-4.416,6.724
								c-0.432,1.334-0.288,2.39,0.181,3.374C138.439,192.697,145.236,195.855,151.496,196.56z"/>
						</g>
						<path style="fill:#FFFFFF;" d="M149.361,174.913c-1.165-0.866-2.666,0.109-3.727,1.061c-1.171,0.756-2.268,1.902-2.914,3.021
							c-0.623,1.074-1.586,3.987,0.53,4.146c1.948,0.145,3.738-1.522,4.865-2.931C148.942,179.182,150.95,176.094,149.361,174.913z"
							/>
						<path style="fill:#FFFFFF;" d="M151.24,172.132c-0.51,0.184-1.165,0.955-0.879,1.531c0.025,0.051,0.049,0.102,0.074,0.151
							c0.339,0.689,1.252-0.304,1.371-0.669c0.024-0.074,0.052-0.147,0.074-0.224C152.04,172.442,151.816,171.926,151.24,172.132z"
							/>
					</g>
					<path style="fill:#B6B8BA;" d="M160.177,207.503c-0.387-1.154-0.605-2.342-0.968-3.499c-0.523-1.668-1.346-3.234-1.868-4.913
						c-0.113-0.361-0.737,0.226-0.682,0.508c0.314,1.598,0.936,3.043,1.591,4.528c0.464,1.055,0.646,2.312,0.953,3.465
						c-1.945,0.464-6.322,0.891-6.205-1.324c0.122-2.298,0.4-4.755,1.217-6.911c0.174-0.457-0.417-0.337-0.555-0.04
						c-0.76,1.606-1.118,3.025-1.406,4.772c-0.203,1.235-0.748,2.912-0.184,4.098c0.474,0.995,2.482,0.982,3.354,1.002
						c1.525,0.038,3.054-0.248,4.406-0.943C160.078,208.118,160.27,207.775,160.177,207.503z"/>
				</g>
				<g>
					<g>
						<path style="fill:#FF1733;" d="M206.809,176.489c-0.011-0.552-0.742,0.147-0.799,0.389c-1.13,4.73-4.272,9.571-6.834,13.659
							c-2.973,4.746-6.733,8.971-11.257,12.278c-4.258,3.111-9.144,5.064-14.179,6.516c-3.079,0.887-6.211,1.631-9.392,2.048
							c-8.391,1.092-17.513,0.284-25.608-2.048c-5.035-1.451-9.922-3.404-14.179-6.516c-4.524-3.308-8.285-7.532-11.257-12.278
							c-2.563-4.088-5.707-8.929-6.834-13.659c-0.057-0.241-0.788-0.94-0.8-0.389c-0.18,9.158,0.993,18.568,2.969,27.505
							c3.408,15.422,12.608,30.768,27.305,37.699c15.578,7.349,36.456,6.044,49.809-5.325c12.997-11.07,18.3-28.186,20.27-44.598
							C206.627,186.733,206.907,181.563,206.809,176.489z M183.904,227.246c-1.785,1.29-3.694,2.433-5.731,3.413
							c-4.227,2.041-9.253,4.091-13.896,4.889c-8.088,1.389-15.874,0.259-23.589-2.388c-4.251-1.459-8.379-3.395-12.083-5.952
							c-12.544-8.66-17.17-24.989-19.951-39.588c3.984,10.199,11.599,19.144,21.308,24.297c5.481,2.908,11.887,4.674,17.938,5.871
							c6.524,1.29,13.161,0.824,19.612-0.623c3.825-0.858,7.566-2.166,11.216-3.583c1.284-0.498,2.574-1.018,3.793-1.665
							c9.709-5.153,17.323-14.098,21.306-24.297c-1.635,8.588-3.801,17.433-7.796,25.254
							C193.091,218.635,189.025,223.544,183.904,227.246z"/>
						<path style="fill:#B31929;" d="M206.809,176.489c-0.011-0.552-0.742,0.147-0.799,0.389c-0.594,2.482-1.739,4.994-3.065,7.411
							c-3.149,7.826-7.266,15.39-14.046,20.414c-14.426,10.689-33.513,12.573-50.362,7.322c-7.827-2.44-15.67-5.913-20.914-12.459
							c-5.432-6.784-9.227-14.735-11.482-23.111c-0.219-0.184-0.461-0.282-0.469,0.034c-0.18,9.158,0.993,18.568,2.969,27.505
							c1.396,6.316,3.765,12.619,7.084,18.335c0.356-0.329,0.826-0.575,1.439-0.697c2.416-0.479,4.599,2.933,5.86,4.454
							c2.57,3.096,6.23,5.466,9.854,7.148c8.169,3.793,17.479,4.844,26.407,4.45c4.951-0.218,9.948-0.953,14.586-2.766
							c1.857-0.726,3.597-1.846,5.485-2.469c1.171-0.387,2.328-0.564,3.421,0.105c1.612,0.991,1.872,3.123,1.489,5.008
							c0.504-0.389,1.003-0.784,1.487-1.195c12.997-11.07,18.3-28.186,20.27-44.598
							C206.627,186.733,206.907,181.563,206.809,176.489z M196.029,212.874c-2.938,5.761-7.004,10.67-12.125,14.372
							c-1.785,1.29-3.694,2.433-5.731,3.413c-4.227,2.041-9.253,4.091-13.896,4.889c-8.088,1.389-15.874,0.259-23.589-2.388
							c-4.251-1.459-8.379-3.395-12.083-5.952c-12.544-8.66-17.17-24.989-19.951-39.588c3.984,10.199,11.599,19.144,21.308,24.297
							c5.481,2.908,11.887,4.674,17.938,5.871c6.524,1.29,13.161,0.824,19.612-0.623c3.825-0.858,7.566-2.166,11.216-3.583
							c1.284-0.498,2.574-1.018,3.793-1.665c9.709-5.153,17.323-14.098,21.306-24.297
							C202.19,196.208,200.024,205.053,196.029,212.874z"/>
						<path style="fill:#811E20;" d="M156.939,246.597L156.939,246.597c-7.435,0-14.743-1.594-21.134-4.607
							c-13.353-6.3-23.627-20.477-27.484-37.923c-2.144-9.7-3.144-18.98-2.976-27.583c0.007-0.363,0.238-0.526,0.466-0.526
							c0.409,0,0.911,0.574,0.976,0.845c1.056,4.428,3.884,8.929,6.377,12.9l0.417,0.663c3.082,4.92,6.841,9.02,11.172,12.188
							c3.713,2.713,8.187,4.767,14.076,6.464c8.166,2.353,17.373,3.094,25.478,2.038c2.829-0.369,5.798-1.017,9.342-2.038
							c5.893-1.697,10.365-3.751,14.079-6.464c4.33-3.168,8.089-7.268,11.172-12.188l0.417-0.663
							c2.493-3.972,5.321-8.473,6.377-12.9c0.063-0.271,0.566-0.845,0.976-0.845c0.226,0,0.458,0.163,0.466,0.526
							c0.097,5.004-0.169,10.16-0.79,15.325c-2.434,20.288-9.293,35.363-20.38,44.806
							C178.406,243.052,168.098,246.597,156.939,246.597z M105.993,176.76c-0.142,8.492,0.856,17.623,2.965,27.166
							c3.813,17.25,13.953,31.26,27.124,37.474c6.307,2.973,13.517,4.545,20.857,4.545c11.005,0,21.161-3.489,28.604-9.826
							c10.958-9.333,17.74-24.266,20.155-44.388c0.606-5.045,0.872-10.08,0.789-14.974c-0.074,0.075-0.145,0.16-0.165,0.21
							c-1.076,4.517-3.934,9.067-6.455,13.084l-0.415,0.661c-3.128,4.99-6.943,9.15-11.342,12.367
							c-3.774,2.759-8.312,4.845-14.279,6.564c-3.579,1.03-6.578,1.684-9.441,2.058c-8.188,1.066-17.49,0.32-25.741-2.058
							c-5.968-1.72-10.505-3.806-14.281-6.564c-4.397-3.217-8.213-7.377-11.341-12.367l-0.414-0.661
							c-2.522-4.017-5.379-8.567-6.459-13.098C106.136,176.912,106.069,176.832,105.993,176.76z M157.242,236.47
							c-5.323,0-10.773-0.98-16.66-3.001c-4.593-1.576-8.685-3.592-12.163-5.992c-12.69-8.762-17.274-25.034-20.086-39.796
							l0.625-0.179c4.037,10.341,11.75,19.135,21.154,24.127c4.667,2.477,10.506,4.386,17.849,5.839
							c5.907,1.169,12.426,0.963,19.478-0.621c4.16-0.935,8.156-2.396,11.17-3.567c1.166-0.451,2.511-0.989,3.757-1.65
							c9.407-4.992,17.117-13.786,21.156-24.127l0.624,0.179c-1.503,7.897-3.609,17.083-7.825,25.343
							c-3.031,5.939-7.145,10.813-12.225,14.485c-1.812,1.31-3.755,2.469-5.782,3.444c-5.367,2.59-10.069,4.244-13.981,4.915
							C162.003,236.268,159.62,236.47,157.242,236.47z M109.576,190.594c2.846,13.777,7.576,28.313,19.212,36.345
							c3.432,2.368,7.471,4.357,12.006,5.913c5.818,1.997,11.198,2.967,16.448,2.967c2.34,0,4.689-0.199,6.977-0.593
							c3.854-0.661,8.499-2.296,13.812-4.859c1.991-0.959,3.904-2.098,5.682-3.386c4.996-3.611,9.042-8.408,12.026-14.255
							c3.652-7.153,5.71-15.029,7.169-22.141c-4.323,9.243-11.57,17.022-20.235,21.62c-1.279,0.676-2.646,1.224-3.827,1.683
							c-3.037,1.178-7.061,2.652-11.265,3.594c-7.141,1.606-13.749,1.813-19.745,0.625c-7.409-1.465-13.306-3.395-18.028-5.901
							C121.146,207.607,113.901,199.834,109.576,190.594z"/>
					</g>
					<path style="fill:#FFFFFF;" d="M109.576,190.594c2.846,13.777,7.576,28.313,19.212,36.345
						c3.432,2.368,7.471,4.357,12.006,5.913c5.818,1.997,11.198,2.967,16.448,2.967c2.34,0,4.689-0.199,6.977-0.593
						c3.854-0.661,8.499-2.296,13.812-4.859c1.991-0.959,3.904-2.098,5.682-3.386c4.996-3.611,9.042-8.408,12.026-14.255
						c3.652-7.153,5.71-15.029,7.169-22.141c-4.323,9.243-11.57,17.022-20.235,21.62c-1.279,0.676-2.646,1.224-3.827,1.683
						c-3.037,1.178-7.061,2.652-11.265,3.594c-7.141,1.606-13.749,1.813-19.745,0.625c-7.409-1.465-13.306-3.395-18.028-5.901
						C121.146,207.607,113.901,199.834,109.576,190.594z"/>
					<path style="fill:#B6B8BA;" d="M198.215,201.306c-1.822,4.337-3.858,8.408-7.004,11.894c-0.039-0.057-0.083-0.111-0.123-0.168
						c-0.57-0.82-1.05-1.701-1.601-2.537c-0.103-0.153-0.367,0.125-0.292,0.258c0.544,0.962,1.032,1.959,1.592,2.91
						c-0.123,0.131-0.239,0.269-0.366,0.398c-2.527,2.565-5.642,4.507-8.846,6.171c-0.52-1.033-1.042-2.065-1.532-3.115
						c-0.079-0.17-0.36,0.122-0.301,0.268c0.412,1.042,0.845,2.09,1.331,3.107c-0.676,0.345-1.355,0.682-2.032,1.006
						c-2.993,1.434-6.084,2.661-9.244,3.612c-0.496-1.686-1.119-3.35-1.593-5.018c-0.055-0.195-0.33,0.044-0.298,0.184
						c0.381,1.683,0.832,3.35,1.287,5.016c-4.174,1.204-8.469,1.917-12.826,1.96c-0.129-1.697-0.318-3.387-0.61-5.056
						c-0.019-0.11-0.178,0.024-0.167,0.104c0.222,1.646,0.309,3.301,0.385,4.954c-1.352,0-2.713-0.057-4.077-0.191
						c-2.191-0.218-4.334-0.611-6.42-1.157c0.064-1.161,0.127-2.322,0.208-3.48c0.014-0.174-0.216-0.03-0.226,0.082
						c-0.105,1.097-0.224,2.199-0.327,3.3c-3.763-1.02-7.342-2.552-10.706-4.477c0.386-1.254,0.774-2.509,1.163-3.763
						c0.063-0.202-0.191-0.109-0.233,0.021c-0.394,1.199-0.786,2.399-1.178,3.6c-4.093-2.37-7.861-5.332-11.26-8.684
						c0.296-0.659,0.576-1.322,0.832-1.996c0.075-0.199-0.182-0.105-0.233,0.018c-0.246,0.601-0.526,1.185-0.809,1.768
						c-4.127-4.107-7.697-8.787-10.605-13.693c-0.059-0.099-0.224,0.073-0.181,0.157c2.747,5.178,6.3,10.005,10.47,14.195
						c-0.306,0.633-0.606,1.266-0.862,1.921c-0.089,0.229,0.207,0.169,0.276,0.021c0.273-0.568,0.544-1.141,0.808-1.717
						c3.402,3.382,7.21,6.337,11.337,8.705c-0.314,0.959-0.629,1.918-0.941,2.876c-0.103,0.314,0.301,0.181,0.365-0.03
						c0.276-0.9,0.557-1.8,0.836-2.699c3.421,1.936,7.055,3.477,10.852,4.517c-0.112,1.28-0.197,2.563-0.207,3.842
						c0,0.216,0.336-0.03,0.347-0.167c0.097-1.188,0.167-2.379,0.233-3.572c3.41,0.903,6.949,1.411,10.579,1.449
						c0.061,1.341,0.127,2.681,0.264,4.018c0.02,0.211,0.314-0.051,0.311-0.189c-0.03-1.272-0.089-2.55-0.171-3.826
						c4.409,0.002,8.767-0.76,12.987-2.029c0.199,0.728,0.397,1.455,0.587,2.183c0.082,0.309,0.5-0.07,0.468-0.284
						c-0.107-0.699-0.261-1.391-0.444-2.078c3.931-1.233,7.737-2.901,11.352-4.807c0.159,0.307,0.318,0.613,0.491,0.911
						c0.132,0.227,0.509-0.173,0.412-0.367c-0.132-0.271-0.27-0.542-0.405-0.812c0.32-0.174,0.643-0.345,0.961-0.518
						c3.243-1.795,5.895-3.907,8.141-6.332c0.389,0.633,0.816,1.241,1.322,1.796c0.169,0.184,0.544-0.271,0.438-0.456
						c-0.373-0.65-0.856-1.228-1.309-1.826c3.064-3.45,5.343-7.52,7.296-12.217C198.888,200.848,198.327,201.039,198.215,201.306z"
						/>
					<path style="fill:#D5D7D8;" d="M117.063,207.628c2.074-1.332,4.666,1.625,6.102,2.796c3.569,2.908,8.207,5.014,12.518,6.536
						c9.346,3.305,19.752,4.684,29.629,3.759c5.225-0.49,10.618-1.407,15.402-3.664c4.499-2.123,8.099-5.192,11.964-8.256
						c0.748-0.595,1.828-1.654,2.836-1.021c0.768,0.479,0.651,2.009,0.597,2.732c-0.051,0.649-0.131,1.29-0.228,1.927
						c3.561-7.076,5.585-14.835,7.025-21.851c-4.323,9.243-11.57,17.022-20.235,21.62c-1.279,0.676-2.646,1.224-3.827,1.683
						c-3.037,1.178-7.061,2.652-11.265,3.594c-7.141,1.606-13.749,1.813-19.745,0.625c-7.409-1.465-13.306-3.395-18.028-5.901
						c-8.662-4.598-15.906-12.371-20.231-21.611c1.447,7.014,3.387,14.221,6.476,20.668
						C115.909,209.845,116.006,208.306,117.063,207.628z"/>
					<path style="fill:#FFFFFF;" d="M147.853,242.595c-10.136-3.054-19.788-7.691-26.927-15.741
						c-0.091-0.102-0.325,0.159-0.25,0.262c6.3,8.614,16.236,14.713,26.854,16.05C147.77,243.195,148.162,242.689,147.853,242.595z"
						/>
					<path style="fill:#FFFFFF;" d="M154.775,243.796c-0.017-0.075-0.053-0.157-0.14-0.174c-0.245-0.042-0.495-0.026-0.741-0.055
						c-0.301-0.034-0.591-0.118-0.873-0.222c-0.3-0.114-0.749,0.545-0.398,0.7c0.459,0.203,0.935,0.328,1.433,0.383
						C154.391,244.465,154.861,244.183,154.775,243.796z"/>
					<path style="fill:#FFFFFF;" d="M154.328,213.668c-10.775-1.255-20.542-3.852-29.942-9.405c-0.082-0.047-0.222,0.12-0.145,0.179
						c8.39,6.385,19.471,9.412,29.891,9.658C154.293,214.104,154.539,213.692,154.328,213.668z"/>
				</g>
			</g>
		</g>
		<g>
			<g>
				<g>
					<path style="fill:#F36F33;" d="M79.834,116.664c1.758-1.616,2.768-3.882,2.411-6.449c-0.357-2.588-2.108-4.44-4.295-5.291
						c4.879-5.024,7.084-12.762,3.932-19.177c-1.874-3.817-4.441-4.702-6.969-3.913c2.979-8.832,5.161-20.212-3.215-25.783
						c-4.539-3.021-8.139-1.386-10.581,1.957c-0.599-1.268-1.351-2.498-2.278-3.66c-4.941-6.197-12.681-2.906-17.601,1.293
						c-3.984,3.4-6.286,7.67-7.076,12.113c-3.046-0.533-6.387-0.331-9.662,0.431c-8.15,1.893-15.302,7.641-18.104,15.743
						c-2.81,8.132,0.33,16.94,5.864,23.016c2.004,2.201,4.382,3.603,6.922,4.34c-4.237,3.392-7.322,10.186-6.905,15.569
						c0.504,6.514,3.759,11.189,10.035,12.985c2.164,0.617,4.263,0.782,6.245,0.517c0.454,4.559,3.437,8.183,8.239,10.123
						c5.071,2.046,12.24-2.658,14.764-6.902c1.451-2.438,2.48-5.469,2.957-8.595c1.268,0.786,2.767,1.176,4.488,0.986
						c3.438-0.379,5.665-3.01,6.752-6.202c1.429,4.372,4.032,8.402,7.781,10.685c4.418,2.688,5.688-2.597,5.807-6.609
						c0.921-0.112,1.842-0.438,2.641-0.845c2.435-1.239,3.335-3.432,3.702-6.054C86.28,122.727,83.869,117.227,79.834,116.664z"/>
					<path style="fill:#A2372F;" d="M39.469,151.622c-1.046,0-2.027-0.183-2.916-0.54c-4.787-1.933-7.875-5.557-8.563-10.009
						c-1.895,0.166-3.867-0.04-5.858-0.61c-6.326-1.808-9.958-6.498-10.505-13.56c-0.396-5.122,2.306-11.626,6.265-15.358
						c-2.332-0.87-4.386-2.266-6.113-4.162c-4.97-5.457-9.152-14.539-5.998-23.667c2.749-7.949,9.864-14.145,18.572-16.166
						c3.255-0.756,6.439-0.941,9.29-0.538c0.959-4.579,3.43-8.671,7.173-11.867c3.634-3.102,7.696-4.881,11.142-4.881
						c2.96,0,5.445,1.238,7.391,3.676c0.713,0.896,1.348,1.857,1.892,2.867c2.963-3.43,6.853-3.938,10.819-1.299
						c6.639,4.416,7.895,12.747,3.829,25.451c0.229-0.025,0.454-0.039,0.678-0.039c1.675,0,4.059,0.786,5.901,4.539
						c2.954,6.012,1.565,13.639-3.425,19.246c2.11,1.118,3.525,3.089,3.85,5.421c0.314,2.266-0.326,4.424-1.813,6.182
						c1.602,0.587,2.991,1.91,3.996,3.823c1.101,2.101,1.572,4.682,1.26,6.901c-0.314,2.247-1.062,5.021-4.055,6.544
						c-0.557,0.282-1.373,0.633-2.304,0.82c-0.337,6.699-3.069,7.436-4.251,7.436h-0.002c-0.771,0-1.62-0.279-2.521-0.826
						c-3.19-1.942-5.809-5.258-7.483-9.442c-1.444,2.925-3.801,4.738-6.643,5.051c-1.438,0.157-2.815-0.055-4.067-0.633
						c-0.546,2.904-1.558,5.689-2.888,7.927C49.913,147.618,44.449,151.622,39.469,151.622z M28.557,139.701
						c0.146,0,0.287,0.05,0.403,0.143c0.138,0.107,0.228,0.271,0.244,0.446c0.43,4.313,3.213,7.717,7.836,9.583
						c0.733,0.296,1.552,0.445,2.429,0.445c4.38,0,9.499-3.658,11.53-7.076c1.385-2.328,2.406-5.295,2.874-8.36
						c0.032-0.216,0.172-0.4,0.371-0.493c0.195-0.093,0.428-0.077,0.616,0.038c1.222,0.756,2.593,1.058,4.073,0.893
						c3.836-0.423,5.535-3.793,6.208-5.764c0.089-0.265,0.337-0.443,0.615-0.443h0.004c0.28,0.002,0.529,0.185,0.616,0.449
						c1.518,4.644,4.181,8.312,7.5,10.331c0.695,0.423,1.317,0.637,1.846,0.637c2.044,0.002,2.874-3.465,2.971-6.711
						c0.011-0.321,0.254-0.587,0.574-0.627c0.765-0.091,1.603-0.359,2.423-0.776c1.941-0.989,2.944-2.652,3.354-5.564
						c0.274-1.961-0.146-4.245-1.124-6.115c-1.038-1.979-2.521-3.194-4.177-3.426c-0.251-0.036-0.457-0.21-0.533-0.452
						c-0.075-0.241-0.004-0.503,0.183-0.673c1.729-1.59,2.514-3.678,2.207-5.879c-0.3-2.16-1.753-3.946-3.886-4.776
						c-0.203-0.077-0.353-0.254-0.4-0.468c-0.047-0.214,0.018-0.436,0.169-0.593c4.255-4.38,7.084-11.78,3.815-18.434
						c-1.55-3.154-3.666-4.367-6.189-3.579c-0.234,0.073-0.488,0.01-0.659-0.165c-0.172-0.176-0.231-0.432-0.151-0.664
						c4.272-12.679,3.304-20.867-2.961-25.033c-1.477-0.982-2.904-1.481-4.246-1.481c-2.523,0-4.353,1.784-5.446,3.279
						c-0.137,0.186-0.36,0.284-0.588,0.266c-0.229-0.022-0.43-0.163-0.528-0.372c-0.595-1.258-1.334-2.447-2.199-3.533
						c-1.687-2.113-3.829-3.184-6.372-3.184c-3.141,0-6.894,1.664-10.294,4.566c-3.682,3.144-6.054,7.201-6.86,11.733
						c-0.063,0.354-0.402,0.587-0.754,0.528c-2.825-0.498-6.076-0.348-9.401,0.423C16.374,70.74,9.616,76.611,7.012,84.143
						c-2.969,8.59,1.014,17.183,5.729,22.362c1.834,2.011,4.062,3.408,6.624,4.153c0.234,0.068,0.409,0.26,0.456,0.5
						c0.05,0.237-0.04,0.483-0.23,0.635c-4.133,3.306-7.06,9.898-6.663,15.011c0.502,6.47,3.808,10.761,9.563,12.407
						c2.048,0.585,4.075,0.754,5.979,0.498C28.497,139.705,28.527,139.701,28.557,139.701z"/>
				</g>
				<path style="fill:#D45627;" d="M79.834,116.664c1.758-1.616,2.768-3.882,2.411-6.449c-0.357-2.588-2.108-4.44-4.295-5.291
					c4.879-5.024,7.084-12.762,3.932-19.177c-1.874-3.817-4.441-4.702-6.969-3.913c2.979-8.832,5.161-20.212-3.215-25.783
					c-4.539-3.021-8.139-1.386-10.581,1.957c-0.599-1.268-1.351-2.498-2.278-3.66c-4.941-6.197-12.681-2.906-17.601,1.293
					c-3.984,3.4-6.286,7.67-7.076,12.113c-3.046-0.533-6.387-0.331-9.662,0.431c-8.15,1.893-15.302,7.641-18.104,15.743
					c-2.81,8.132,0.33,16.94,5.864,23.016c2.004,2.201,4.382,3.603,6.922,4.34c-4.237,3.392-7.322,10.186-6.905,15.569
					c0.504,6.514,3.759,11.189,10.035,12.985c2.164,0.617,4.263,0.782,6.245,0.517c0.454,4.559,3.437,8.183,8.239,10.123
					c5.071,2.046,12.24-2.658,14.764-6.902c1.451-2.438,2.48-5.469,2.957-8.595c1.268,0.786,2.767,1.176,4.488,0.986
					c3.438-0.379,5.665-3.01,6.752-6.202c1.429,4.372,4.032,8.402,7.781,10.685c4.418,2.688,5.688-2.597,5.807-6.609
					c0.921-0.112,1.842-0.438,2.641-0.845c2.435-1.239,3.335-3.432,3.702-6.054C86.28,122.727,83.869,117.227,79.834,116.664z
					 M67.264,101.29c-3.602,3.275-8.39,3.87-12.3,2.091c0.826,2.265,1.245,4.627,0.459,7.005c-1.027,3.112-3.374,6.515-6.667,7.532
					c-3.301,1.023-7.447-0.014-9.426-2.616c-0.407,2.787-1.867,5.357-4.374,6.894c-3.118,1.907-7.768,2.413-10.95,0.315
					c-3.339-2.2-3.922-5.917-2.65-9.502c0.434-1.227,1.015-2.891,2.213-3.561c0.539-0.301,2.089,0.29,2.584,0.341
					c1.401,0.146,2.699,0.306,4.023-0.065c-2.693-1.01-5.388-2.109-6.941-4.716c-2.031-3.404-1.923-6.919-1.55-10.68
					c-2.737,3.113-2.766,8.143-1.766,11.949c0.07,0.265-0.232,0.528-0.478,0.367c-4.065-2.664-7.439-6.625-8.592-11.438
					c-1.11-4.638-0.369-9.763,2.285-13.774c2.852-4.309,7.237-7.783,12.182-9.355c2.863-0.912,7.046-2.124,9.998-0.684
					c0.363-2.634,1.809-5.15,3.552-7.098c2.317-2.592,5.78-5.176,9.454-5c5.313,0.254,7.057,6.404,5.246,10.773
					c1.301,0.206,2.552,0.647,3.652,1.403c2.366,1.622,3.05,4.604,2.896,7.306c-0.013,0.223-0.274,0.434-0.49,0.279
					c-1.854-1.322-3.867-1.926-6.006-2.141c2.019,0.906,3.692,2.505,4.721,4.538c1.819,3.594,1.451,7.405,1.444,11.276
					c2.159-2.838,4.785-7.82,2.874-10.966c-0.139-0.226,0.093-0.589,0.367-0.479c4.212,1.699,7.157,5.195,7.802,9.729
					C71.352,94.714,70.052,98.757,67.264,101.29z"/>
				<path style="fill:#D45627;" d="M79.834,116.664c1.758-1.616,2.768-3.882,2.411-6.449c-0.357-2.588-2.108-4.44-4.295-5.291
					c4.879-5.024,7.084-12.762,3.932-19.177c-1.874-3.817-4.441-4.702-6.969-3.913c2.842-8.43,4.955-19.178-2.145-24.984
					c2.549,4.82,4,10.261,2.878,15.701c-0.856,4.15-2.518,8.674-5.446,11.929c4.128,0.267,8.084,2.128,8.983,6.457
					c1.241,5.986-3.196,11.857-8.8,13.704c0.724,0.254,1.421,0.574,2.056,0.985c1.83,1.185,3.741,3.31,3.44,5.682
					c-0.304,2.394-2.175,4.301-4.416,5.129c2.116,1.814,3.886,4.164,4.234,6.79c0.347,2.63-1.387,7.024-4.672,6.81
					c-2.769-0.182-4.762-2.976-6.106-5.115c-0.353-0.563-0.689-1.137-1.016-1.718c0.093,2.552-0.542,5.085-2.106,6.911
					c-1.372,1.599-4.041,3.344-6.044,1.617c-0.847-0.729-1.167-1.597-1.177-2.709c-0.011-1.578-0.023-3.058-0.339-4.529
					c-0.524,4.971-4.696,8.828-9.753,8.654c1.729,1.089,3.617,2.425,5.551,1.68c0.262-0.1,0.433,0.187,0.402,0.402
					c-0.768,5.555-5.836,9.895-11.491,9.971c-4.906,0.066-10.249-3.71-9.447-9.058c0.022-0.149,0.182-0.23,0.315-0.241
					c3.387-0.254,6.627-1.665,8.372-4.596c-5.432,2.499-12.892,3.245-16.397-2.058c0.438,2.814,1.368,6.123,4.202,6.883
					c0.396,0.129,0.234,0.739-0.175,0.629c-2.195-0.718-4.664-1.175-6.617-2.474c-1.949-1.3-3.357-3.236-4.202-5.413
					c-1.256-3.228-1.58-6.788-1.141-10.246c-1.163,2.712-1.78,5.631-1.58,8.225c0.504,6.514,3.759,11.189,10.035,12.985
					c2.164,0.617,4.263,0.782,6.245,0.517c0.454,4.559,3.437,8.183,8.239,10.123c5.071,2.046,12.24-2.658,14.764-6.902
					c1.451-2.438,2.48-5.469,2.957-8.595c1.268,0.786,2.767,1.176,4.488,0.986c3.438-0.379,5.665-3.01,6.752-6.202
					c1.429,4.372,4.032,8.402,7.781,10.685c4.418,2.688,5.688-2.597,5.807-6.609c0.921-0.112,1.842-0.438,2.641-0.845
					c2.435-1.239,3.335-3.432,3.702-6.054C86.28,122.727,83.869,117.227,79.834,116.664z"/>
				<g style="opacity:0.4;">
					<path style="fill:#F8F8D3;" d="M18.847,83.484c-0.424-0.662-1.163-0.897-1.872-0.543c-0.845,0.424-1.365,1.51-1.195,2.43
						c0.048,0.262,0.175,0.461,0.353,0.607c0.117,0.314,0.307,0.594,0.608,0.809c0.877,0.623,1.858-0.481,2.161-1.211
						C19.184,84.895,19.26,84.129,18.847,83.484z"/>
					<path style="fill:#F8F8D3;" d="M33.973,76.053c-0.345-1.808-2.065-2.751-3.725-2.867c-0.794-0.057-1.514,0.08-2.165,0.36
						c-2.958,0.099-5.639,2.052-6.661,5.022c-0.535,1.554-0.108,3.138,0.958,4.327c1.177,1.308,3.555,1.012,5.051,0.693
						C30.864,82.861,34.723,79.999,33.973,76.053z M31.75,78.268c0.209,0.301,0.088,0.566-0.363,0.799
						C31.532,78.807,31.657,78.54,31.75,78.268z M24.327,76.225c-0.405,0.338-0.746,0.735-0.976,1.197
						c-0.127,0.193-0.242,0.395-0.347,0.596C23.234,77.258,23.708,76.67,24.327,76.225z"/>
					<path style="fill:#F8F8D3;" d="M45.493,66.4c-0.665-0.785-1.151-0.73-1.965-0.445c-1.032-0.36-2.076,0.482-2.72,1.527
						c-0.661,1.072-0.673,3.195,0.627,3.809c0.774,0.366,1.714,0.148,2.407-0.283c0.904-0.559,1.293-1.488,1.815-2.34
						C46.045,68.039,45.971,66.961,45.493,66.4z"/>
					<path style="fill:#F8F8D3;" d="M38.063,82.029c-0.442,0.002-0.971,0.243-1.312,0.602c-0.371,0.287-0.58,0.78-0.631,1.23
						c-0.055,0.521,0.199,1.047,0.728,1.181c0.576,0.146,1.11-0.28,1.467-0.675c0.313-0.346,0.565-0.859,0.585-1.332
						C38.927,82.51,38.639,82.025,38.063,82.029z"/>
					<path style="fill:#F8F8D3;" d="M17.761,121.368c-0.67-0.038-1.274,0.669-1.563,1.182c-0.127,0.228-0.203,0.478-0.244,0.735
						c-0.08,0.159-0.148,0.326-0.191,0.512c-0.349,1.451-0.182,3.11,1.312,3.789c1.531,0.697,2.61-1.603,2.709-2.73
						C19.907,123.444,19.449,121.461,17.761,121.368z"/>
					<path style="fill:#F8F8D3;" d="M43.345,124.087c-0.78-0.862-1.792-1.065-2.76-0.848c-1.687-0.186-3.382,1.287-3.688,2.986
						c-0.422,2.36,2.338,3.672,4.254,3.016C42.953,128.626,44.895,125.799,43.345,124.087z"/>
				</g>
			</g>
			<g>
				<g>
					<path style="fill:#F36F33;" d="M226.796,126.941c0.368,2.622,1.268,4.815,3.704,6.054c0.798,0.407,1.719,0.732,2.639,0.845
						c0.12,4.013,1.389,9.298,5.808,6.609c3.749-2.282,6.35-6.313,7.78-10.685c1.088,3.192,3.314,5.823,6.752,6.202
						c1.723,0.189,3.219-0.2,4.488-0.986c0.478,3.126,1.506,6.157,2.957,8.595c2.525,4.244,9.693,8.948,14.765,6.902
						c4.803-1.941,7.784-5.564,8.239-10.123c1.981,0.266,4.079,0.101,6.244-0.517c6.276-1.796,9.531-6.472,10.037-12.985
						c0.415-5.384-2.669-12.178-6.907-15.569c2.543-0.737,4.918-2.139,6.923-4.34c5.534-6.076,8.675-14.884,5.863-23.016
						c-2.802-8.102-9.954-13.85-18.104-15.743c-3.275-0.762-6.615-0.964-9.662-0.431c-0.789-4.443-3.092-8.713-7.075-12.113
						c-4.921-4.199-12.659-7.49-17.601-1.293c-0.929,1.162-1.681,2.393-2.279,3.66c-2.441-3.343-6.041-4.978-10.581-1.957
						c-8.375,5.571-6.193,16.951-3.215,25.783c-2.525-0.789-5.095,0.096-6.968,3.913c-3.152,6.415-0.947,14.152,3.931,19.177
						c-2.186,0.851-3.937,2.703-4.295,5.291c-0.355,2.567,0.654,4.833,2.414,6.449C228.615,117.227,226.203,122.727,226.796,126.941
						z"/>
					<path style="fill:#A2372F;" d="M273.016,151.622c-4.979,0-10.445-4.004-12.652-7.713c-1.33-2.237-2.342-5.022-2.887-7.927
						c-1.253,0.578-2.63,0.79-4.068,0.633c-2.842-0.313-5.198-2.126-6.642-5.051c-1.675,4.184-4.293,7.5-7.483,9.442
						c-0.9,0.547-1.751,0.826-2.521,0.826l0,0c-1.183,0-3.916-0.737-4.254-7.436c-0.93-0.188-1.748-0.538-2.304-0.82
						c-2.993-1.523-3.739-4.297-4.054-6.544c-0.313-2.22,0.159-4.801,1.26-6.901c1.002-1.913,2.395-3.236,3.997-3.823
						c-1.487-1.758-2.129-3.916-1.814-6.182c0.323-2.332,1.739-4.303,3.85-5.421c-4.992-5.607-6.379-13.234-3.426-19.246
						c1.844-3.753,4.227-4.539,5.901-4.539c0.224,0,0.451,0.014,0.679,0.039c-4.065-12.704-2.81-21.035,3.829-25.451
						c3.967-2.639,7.858-2.131,10.819,1.299c0.544-1.01,1.179-1.971,1.891-2.867c1.946-2.438,4.434-3.676,7.391-3.676
						c3.446,0,7.508,1.779,11.142,4.881c3.742,3.196,6.214,7.288,7.173,11.867c2.85-0.403,6.036-0.218,9.289,0.538
						c8.709,2.021,15.827,8.217,18.574,16.166c3.156,9.128-1.029,18.21-5.996,23.667c-1.729,1.896-3.782,3.292-6.116,4.162
						c3.96,3.732,6.663,10.236,6.268,15.358c-0.548,7.062-4.18,11.752-10.508,13.56c-1.99,0.57-3.965,0.776-5.857,0.61
						c-0.688,4.452-3.775,8.076-8.562,10.009C275.042,151.439,274.061,151.622,273.016,151.622z M257.967,134.328
						c0.093,0,0.188,0.021,0.272,0.061c0.199,0.093,0.34,0.277,0.372,0.493c0.468,3.065,1.489,6.032,2.874,8.36
						c2.032,3.418,7.151,7.076,11.53,7.076c0.877,0,1.695-0.149,2.431-0.445c4.62-1.866,7.401-5.27,7.833-9.583
						c0.018-0.176,0.107-0.339,0.245-0.446c0.138-0.11,0.311-0.159,0.49-0.135c1.902,0.256,3.932,0.087,5.979-0.498
						c5.757-1.646,9.063-5.938,9.563-12.407c0.398-5.112-2.529-11.705-6.663-15.011c-0.189-0.151-0.278-0.397-0.232-0.635
						c0.048-0.24,0.224-0.432,0.457-0.5c2.564-0.745,4.791-2.143,6.623-4.155c4.718-5.178,8.7-13.771,5.729-22.36
						c-2.603-7.531-9.361-13.402-17.637-15.323c-3.325-0.771-6.576-0.921-9.4-0.423c-0.351,0.061-0.691-0.174-0.756-0.528
						c-0.806-4.532-3.178-8.59-6.858-11.733c-3.4-2.902-7.153-4.566-10.295-4.566c-2.542,0-4.686,1.07-6.369,3.184
						c-0.868,1.086-1.606,2.275-2.201,3.533c-0.099,0.209-0.3,0.35-0.529,0.372c-0.222,0.019-0.45-0.079-0.587-0.266
						c-1.094-1.495-2.924-3.279-5.447-3.279c-1.341,0-2.77,0.499-4.247,1.481c-6.264,4.166-7.231,12.355-2.959,25.033
						c0.079,0.232,0.021,0.488-0.15,0.664c-0.172,0.175-0.424,0.24-0.661,0.165c-2.523-0.788-4.64,0.425-6.188,3.579
						c-3.271,6.653-0.439,14.054,3.814,18.434c0.152,0.157,0.217,0.379,0.169,0.593c-0.047,0.214-0.197,0.391-0.399,0.468
						c-2.134,0.83-3.587,2.616-3.888,4.776c-0.304,2.201,0.48,4.289,2.209,5.879c0.186,0.17,0.258,0.432,0.182,0.673
						c-0.073,0.242-0.282,0.416-0.532,0.452c-1.656,0.231-3.14,1.447-4.176,3.426c-0.979,1.87-1.401,4.154-1.125,6.115
						c0.409,2.912,1.411,4.575,3.354,5.564c0.82,0.417,1.657,0.686,2.423,0.776c0.32,0.04,0.563,0.306,0.574,0.627
						c0.097,3.246,0.928,6.711,2.971,6.711l0,0c0.53,0,1.149-0.214,1.845-0.637c3.319-2.02,5.983-5.688,7.501-10.331
						c0.087-0.265,0.335-0.447,0.615-0.449c0.306-0.013,0.53,0.177,0.622,0.443c0.67,1.971,2.369,5.341,6.206,5.764
						c1.48,0.165,2.854-0.137,4.073-0.893C257.73,134.36,257.848,134.328,257.967,134.328z"/>
				</g>
				<path style="fill:#D45627;" d="M226.796,126.941c0.368,2.622,1.268,4.815,3.704,6.054c0.798,0.407,1.719,0.732,2.639,0.845
					c0.12,4.013,1.389,9.298,5.808,6.609c3.749-2.282,6.35-6.313,7.78-10.685c1.088,3.192,3.314,5.823,6.752,6.202
					c1.723,0.189,3.219-0.2,4.488-0.986c0.478,3.126,1.506,6.157,2.957,8.595c2.525,4.244,9.693,8.948,14.765,6.902
					c4.803-1.941,7.784-5.564,8.239-10.123c1.981,0.266,4.079,0.101,6.244-0.517c6.276-1.796,9.531-6.472,10.037-12.985
					c0.415-5.384-2.669-12.178-6.907-15.569c2.543-0.737,4.918-2.139,6.923-4.34c5.534-6.076,8.675-14.884,5.863-23.016
					c-2.802-8.102-9.954-13.85-18.104-15.743c-3.275-0.762-6.615-0.964-9.662-0.431c-0.789-4.443-3.092-8.713-7.075-12.113
					c-4.921-4.199-12.659-7.49-17.601-1.293c-0.929,1.162-1.681,2.393-2.279,3.66c-2.441-3.343-6.041-4.978-10.581-1.957
					c-8.375,5.571-6.193,16.951-3.215,25.783c-2.525-0.789-5.095,0.096-6.968,3.913c-3.152,6.415-0.947,14.152,3.931,19.177
					c-2.186,0.851-3.937,2.703-4.295,5.291c-0.355,2.567,0.654,4.833,2.414,6.449C228.615,117.227,226.203,122.727,226.796,126.941z
					 M241.657,91.014c0.644-4.533,3.59-8.029,7.802-9.729c0.274-0.109,0.506,0.254,0.367,0.479
					c-1.912,3.146,0.716,8.128,2.874,10.966c-0.008-3.871-0.375-7.683,1.443-11.276c1.029-2.033,2.702-3.632,4.72-4.538
					c-2.138,0.215-4.151,0.818-6.004,2.141c-0.216,0.154-0.478-0.057-0.491-0.279c-0.151-2.702,0.531-5.684,2.897-7.306
					c1.101-0.756,2.351-1.197,3.652-1.403c-1.811-4.369-0.068-10.52,5.246-10.773c3.674-0.176,7.137,2.408,9.453,5
					c1.743,1.947,3.189,4.464,3.553,7.098c2.951-1.44,7.135-0.229,9.997,0.684c4.945,1.572,9.333,5.047,12.184,9.355
					c2.652,4.012,3.396,9.137,2.283,13.774c-1.149,4.813-4.525,8.773-8.59,11.438c-0.246,0.161-0.549-0.103-0.479-0.367
					c1.001-3.807,0.973-8.836-1.768-11.949c0.376,3.761,0.483,7.275-1.548,10.68c-1.553,2.606-4.247,3.706-6.941,4.716
					c1.324,0.371,2.622,0.212,4.025,0.065c0.494-0.051,2.044-0.642,2.584-0.341c1.197,0.671,1.779,2.334,2.215,3.561
					c1.268,3.585,0.686,7.302-2.652,9.502c-3.183,2.099-7.832,1.593-10.95-0.315c-2.507-1.537-3.968-4.107-4.375-6.894
					c-1.977,2.602-6.123,3.64-9.427,2.616c-3.291-1.018-5.639-4.42-6.665-7.532c-0.786-2.378-0.368-4.74,0.458-7.005
					c-3.91,1.779-8.697,1.185-12.299-2.091C242.434,98.757,241.132,94.714,241.657,91.014z"/>
				<path style="fill:#D45627;" d="M232.652,116.664c-1.76-1.616-2.77-3.882-2.414-6.449c0.358-2.588,2.109-4.44,4.295-5.291
					c-4.878-5.024-7.083-12.762-3.931-19.177c1.873-3.817,4.442-4.702,6.968-3.913c-2.842-8.43-4.954-19.178,2.145-24.984
					c-2.548,4.82-3.999,10.261-2.876,15.701c0.855,4.15,2.517,8.674,5.445,11.929c-4.128,0.267-8.086,2.128-8.984,6.457
					c-1.24,5.986,3.196,11.857,8.801,13.704c-0.724,0.254-1.421,0.574-2.056,0.985c-1.83,1.185-3.742,3.31-3.44,5.682
					c0.303,2.394,2.175,4.301,4.416,5.129c-2.118,1.814-3.886,4.164-4.232,6.79c-0.349,2.63,1.387,7.024,4.67,6.81
					c2.768-0.182,4.761-2.976,6.107-5.115c0.352-0.563,0.689-1.137,1.015-1.718c-0.093,2.552,0.542,5.085,2.107,6.911
					c1.371,1.599,4.041,3.344,6.043,1.617c0.847-0.729,1.167-1.597,1.175-2.709c0.014-1.578,0.024-3.058,0.341-4.529
					c0.525,4.971,4.697,8.828,9.753,8.654c-1.728,1.089-3.616,2.425-5.551,1.68c-0.261-0.1-0.432,0.187-0.401,0.402
					c0.768,5.555,5.837,9.895,11.49,9.971c4.909,0.066,10.248-3.71,9.448-9.058c-0.022-0.149-0.182-0.23-0.315-0.241
					c-3.388-0.254-6.627-1.665-8.372-4.596c5.434,2.499,12.892,3.245,16.397-2.058c-0.438,2.814-1.368,6.123-4.202,6.883
					c-0.398,0.129-0.235,0.739,0.172,0.629c2.198-0.718,4.666-1.175,6.62-2.474c1.951-1.3,3.356-3.236,4.203-5.413
					c1.255-3.228,1.578-6.788,1.141-10.246c1.164,2.712,1.779,5.631,1.58,8.225c-0.506,6.514-3.761,11.189-10.037,12.985
					c-2.165,0.617-4.263,0.782-6.244,0.517c-0.455,4.559-3.437,8.183-8.239,10.123c-5.071,2.046-12.24-2.658-14.765-6.902
					c-1.451-2.438-2.479-5.469-2.957-8.595c-1.27,0.786-2.766,1.176-4.488,0.986c-3.438-0.379-5.664-3.01-6.752-6.202
					c-1.431,4.372-4.031,8.402-7.78,10.685c-4.419,2.688-5.688-2.597-5.808-6.609c-0.92-0.112-1.841-0.438-2.639-0.845
					c-2.436-1.239-3.336-3.432-3.704-6.054C226.203,122.727,228.615,117.227,232.652,116.664z"/>
				<g style="opacity:0.4;">
					<path style="fill:#F8F8D3;" d="M293.584,85.576c0.304,0.729,1.283,1.834,2.16,1.211c0.301-0.215,0.49-0.494,0.607-0.809
						c0.179-0.146,0.306-0.346,0.353-0.607c0.173-0.92-0.351-2.006-1.195-2.43c-0.706-0.354-1.447-0.119-1.872,0.543
						C293.226,84.129,293.302,84.895,293.584,85.576z"/>
					<path style="fill:#F8F8D3;" d="M285.053,83.589c1.497,0.318,3.875,0.614,5.051-0.693c1.067-1.189,1.495-2.773,0.959-4.327
						c-1.023-2.971-3.704-4.924-6.661-5.022c-0.649-0.28-1.372-0.417-2.165-0.36c-1.66,0.116-3.38,1.06-3.725,2.867
						C277.761,79.999,281.62,82.861,285.053,83.589z M281.098,79.066c-0.451-0.232-0.572-0.498-0.364-0.799
						C280.826,78.54,280.951,78.807,281.098,79.066z M289.478,78.018c-0.104-0.201-0.222-0.402-0.347-0.596
						c-0.229-0.462-0.57-0.859-0.976-1.197C288.775,76.67,289.249,77.258,289.478,78.018z"/>
					<path style="fill:#F8F8D3;" d="M266.99,66.4c0.667-0.785,1.152-0.73,1.965-0.445c1.032-0.36,2.076,0.482,2.723,1.527
						c0.659,1.072,0.671,3.195-0.629,3.809c-0.777,0.366-1.715,0.148-2.408-0.283c-0.901-0.559-1.292-1.488-1.813-2.34
						C266.441,68.039,266.515,66.961,266.99,66.4z"/>
					<path style="fill:#F8F8D3;" d="M274.421,82.029c0.441,0.002,0.97,0.243,1.311,0.602c0.371,0.287,0.581,0.78,0.631,1.23
						c0.057,0.521-0.199,1.047-0.728,1.181c-0.578,0.146-1.11-0.28-1.467-0.675c-0.313-0.346-0.563-0.859-0.585-1.332
						C273.557,82.51,273.845,82.025,274.421,82.029z"/>
					<path style="fill:#F8F8D3;" d="M294.725,121.368c0.671-0.038,1.275,0.669,1.562,1.182c0.128,0.228,0.202,0.478,0.246,0.735
						c0.079,0.159,0.147,0.326,0.191,0.512c0.347,1.451,0.18,3.11-1.315,3.789c-1.53,0.697-2.608-1.603-2.709-2.73
						C292.576,123.444,293.035,121.461,294.725,121.368z"/>
					<path style="fill:#F8F8D3;" d="M269.139,124.087c0.781-0.862,1.793-1.065,2.763-0.848c1.684-0.186,3.38,1.287,3.685,2.986
						c0.423,2.36-2.338,3.672-4.253,3.016C269.531,128.626,267.589,125.799,269.139,124.087z"/>
				</g>
			</g>
		</g>
	</g>
	<g>
		<path style="fill:#B52126;" d="M191.628,29.529c-1.606,1.403-2.12,1.49-2.078,0.688c-0.618,0.335-1.157,0.568-1.286,0.147
			c-0.211-0.677,0.011-2.029-0.099-2.912c-0.016-0.123-0.044-0.226-0.08-0.318c-0.629-0.021-1.139-0.239-1.646-0.454
			c-0.494,0.096-1.047,0.279-1.492,0.293c-0.153,0.008-0.292-0.016-0.438-0.021c-0.254,0.143-0.529,0.323-0.832,0.546
			c-0.838,0.617-1.794,1.432-2.336,1.49c-0.494,0.053-0.716-0.295-0.633-1.248c0.065-0.729,0.303-1.92-0.053-1.985
			c-0.328-0.05-0.818,0.292-1.323,0.653c-0.974,0.699-1.877,1.279-2.542,1.35c-0.286,0.029-0.55,0.013-0.811-0.008
			c-0.343,0.102-0.612,0.055-0.872-0.02c-0.024,0.004-0.055,0.008-0.079,0.014c-0.093,0.026-0.18,0.049-0.26,0.072
			c-1.421,0.454-2.527,0.269-3.666,0.162c-0.853-0.059-1.76,0.07-2.48-0.324c-0.76-0.424-1.588-0.742-2.616-0.208
			c-0.775,0.405-1.452,0.903-2.213,1.29c1.068,0.709,1.299,3.519,2.002,4.401c0.393,0.47,0.332,2.194,0.332,3.548
			c0.006,1.359,0.068,2.365,0.879,1.535c0.356-0.354,0.923-1.326,1.47-2.209c0.518,0.203,1.067,0.33,1.612,0.478
			c0.034,0.36,0.112,0.616,0.318,0.579c0.26-0.049,0.482-0.019,0.689,0.04c1.068-1.021,2.037-1.624,1.764,0.122
			c-0.267,1.699-1.895,5.721-3.3,9.169c0.691-1.133,1.277-2.034,1.762-2.724c1.993-3.355,2.196-3.155,2.808-3.341
			c0.77-0.229,1.731-0.774,2.454-0.853c0.847-0.084,1.521,0.157,2.313,0.222c-0.284,1.453-0.949,3.431-1.714,5.388
			c-0.114,0.289-0.177,0.529-0.207,0.733c0.008,0.077,0.014,0.163,0.028,0.229c0.163,0.754,2.836-2.361,3.583-2.385
			c0.536-0.031,0.24,1.1-0.076,2.216c0.106,0.46,0.334,0.751,0.455,1.152c0.115,0.377,0.026,1.032,0.089,1.477
			c0.331-0.066,0.739-0.224,1.222-0.47c0.112-0.058-0.2,0.399-0.549,0.854c0.091-0.034,0.172-0.057,0.288-0.123
			c3.635-2.115,6.517-2.928,7.083-0.983c0.375,1.394,1.757,1.665,2.933,2.229c-0.119,0.762-0.236,1.525-0.353,2.27
			c-0.268,1.779-0.772,3.697-0.704,5.021c0.085,1.153,1.445,1.176,1.976,1.949c0.445,0.686,1.953,0.458,3.704,0.1
			c0.331,0.723,0.623,1.471,0.798,2.301c0.14,0.92-0.22,2.205,0.409,2.729c0.28,0.235,0.934,0.199,1.347,0.341
			c0.591,0.205-0.51,1.598,0.049,1.808c0.858,0.324,2.649-0.028,3.311,0.464c-0.155,1.779-0.673,3.779,0.638,4.543
			c0.806,0.473,4.103-0.672,4.276,0.254c0.157,0.918-1.171,2.473-0.262,2.965c0.887,0.479,1.935,0.887,3.124,1.232
			c0.082,0.121,0.153,0.244,0.243,0.359c0.988,1.273,3.118,1.965,5.509,2.62c0.595,0.968,1.04,2.009,1.561,3.015
			c0.506,1.012,1.025,2.021,1.559,3.025c0.439,0.414,0.942,0.805,1.571,1.145c1.125,0.605,2.495,1.143,3.163,1.976
			c-0.2-2.656,0.808-5.909-0.319-8.29c-0.474-0.982-1.201-1.842-2.009-2.658c-0.839-0.804-1.699-1.586-2.318-2.484
			c-1.183-1.711-1.765-3.693-1.152-6.399c0.002-0.007,0.012-0.017,0.018-0.024c-1.334-2.523-2.74-5.022-4.148-7.523
			c-0.337-0.633-0.737-1.233-1.143-1.83l-1.209-1.796l-2.449-3.579c0.077-0.328,0.169-0.664,0.303-1.041
			c0.951-2.883-1.796-3.057-3.419-3.857c-0.358-0.177-0.747-0.324-1.145-0.461c-1.213-1.555-2.654-2.938-4.031-4.367l-2.096-2.117
			c-0.714-0.691-1.499-1.322-2.249-1.98c0.008-0.197,0.032-0.412,0.08-0.657c0.323-1.634-0.154-2.429-0.832-2.975
			c-0.341-0.271-0.728-0.487-1.11-0.708c-0.395-0.211-0.774-0.438-1.074-0.764c-1.415,0.286-2.264-0.07-1.728-2.295
			c0.133-0.551,0.422-1.299,0.72-2.072C192.408,29.865,192.055,29.639,191.628,29.529z"/>
		<path style="fill:#720809;" d="M187.166,35.773c-0.851,0.414-1.231,0.354-1.393-0.096c-0.389,0.046-0.745,0.05-0.946-0.221
			c-0.325-0.433-0.477-1.141-0.763-1.658c-0.038-0.074-0.084-0.137-0.131-0.197c-0.485-0.156-0.923-0.401-1.36-0.641
			c-0.358-0.068-0.754-0.077-1.099-0.17c-0.118-0.036-0.231-0.07-0.349-0.105c-0.169,0.021-0.345,0.059-0.534,0.111
			c-0.527,0.146-1.11,0.363-1.537,0.271c-0.388-0.085-0.649-0.323-0.79-0.811c-0.107-0.372-0.166-0.943-0.464-1.056
			c-0.278-0.091-0.606-0.015-0.941,0.068c-0.652,0.159-1.284,0.266-1.828,0.161c-0.235-0.046-0.461-0.112-0.687-0.177
			c-0.267-0.021-0.506-0.104-0.74-0.196l-0.064-0.012c-0.074-0.007-0.144-0.015-0.208-0.017c-1.13-0.044-2.136-0.349-3.156-0.625
			c-0.764-0.179-1.556-0.27-2.271-0.578c-0.729-0.326-1.488-0.549-2.322-0.492c0.661,1.51,1.106,3.223,1.876,3.951
			c0.446,0.419,0.949,0.648,1.451,0.902c0.142-0.133,0.297-0.277,0.448-0.417c0.538,0.218,1.09,0.407,1.641,0.604
			c0.118,0.189,0.252,0.335,0.44,0.363c0.132,0.023,0.255,0.055,0.375,0.099c0.017-0.017,0.032-0.036,0.045-0.046
			c1.084-0.662,1.624-0.115,2.048,0.664c0.499,0.909,1.235,1.141,2.319,0.935c2.133-0.409,2.917,1.654,4.234,2.649
			c0.718,0.506,1.491,0.926,2.334,1.254c0.864,0.309,1.008,1.556,1.558,2.262c0.763,1.027,1.686,1.809,2.816,2.357
			c1.304,0.155,2.395,0.608,3.071,1.608c0.705,1.069,1.852,1.65,2.836,2.433c0.148,0.508,0.294,1.016,0.439,1.52
			c0.356,1.201,0.618,2.459,1.114,3.475c0.468,0.885,1.372,1.387,1.983,2.15c0.52,0.678,1.467,0.986,2.515,1.24
			c0.443,0.664,0.873,1.338,1.254,2.045c0.356,0.788,0.51,1.728,1.064,2.356c0.246,0.278,0.645,0.449,0.945,0.692
			c0.427,0.34,0.163,1.162,0.576,1.506c0.633,0.524,1.626,0.752,2.177,1.343c0.407,1.445,0.651,3.031,1.633,4.062
			c0.059,0.063,0.133,0.114,0.207,0.163c0.484,0.133,0.901,0.31,1.292,0.508c0.394,0.133,0.742,0.3,0.936,0.581
			c0.959,0.732,1.658,1.636,2.17,2.642c0.513,0.933,0.988,1.886,1.774,2.677c0.798,0.804,2.058,1.368,3.27,1.986
			c0.847,0.443,1.637,0.924,2.25,1.492c0.624,0.564,1.166,1.175,1.658,1.812c-0.212-0.383-0.464-0.747-0.76-1.088l-0.063-0.125
			c-0.512-1.284-1.383-2.384-2.065-3.575c-0.049-0.083-0.129-0.096-0.224-0.066l-2.53-5.186c-0.398-0.877-0.911-1.695-1.395-2.528
			l-1.467-2.495l-1.474-2.493c-0.25-0.413-0.481-0.837-0.75-1.239l-0.832-1.191l-3.344-4.752c-0.036-0.228-0.068-0.462-0.083-0.71
			c-0.188-1.882-1.94-2.69-3.188-3.724c-0.273-0.225-0.562-0.438-0.852-0.646c-1.161-1.485-2.536-2.792-3.846-4.153l-1.983-2.023
			c-0.675-0.66-1.413-1.262-2.118-1.893c-0.049-0.123-0.091-0.257-0.121-0.4c-0.21-0.967-0.748-1.594-1.368-2.121
			c-0.313-0.263-0.64-0.508-0.972-0.744c-0.345-0.226-0.682-0.459-0.987-0.73c-0.96-0.179-1.695-0.624-1.855-1.815
			c-0.038-0.295-0.008-0.666,0.026-1.045C187.82,36.167,187.508,35.945,187.166,35.773z"/>
	</g>
</g>
</svg>
